<svg width="45" height="45" viewBox="0 0 45 45" fill="none" xmlns="http://www.w3.org/2000/svg">
    <circle cx="22.5" cy="22.5" r="22.5" fill="#FFC800"/>
    <path d="M20.7532 15.0998L20.7532 15.0998L22.5696 17.8245L22.9857 17.5471L22.5696 17.8245C22.842 18.233 23.3005 18.4785 23.7917 18.4785H31.5417C32.1573 18.4785 32.6562 18.9775 32.6562 19.5931V24.5V29.2806C32.6562 29.8962 32.1573 30.3952 31.5417 30.3952H13.4583C12.8428 30.3952 12.3438 29.8962 12.3438 29.2806V15.7181C12.3438 15.1025 12.8428 14.6035 13.4583 14.6035H19.8258C20.1985 14.6035 20.5465 14.7898 20.7532 15.0998ZM23.1974 13.4704L23.1973 13.4704C22.4457 12.3431 21.1806 11.666 19.8258 11.666H13.4583C11.2204 11.666 9.40625 13.4802 9.40625 15.7181V29.2806C9.40625 31.5185 11.2204 33.3327 13.4583 33.3327H31.5417C33.7796 33.3327 35.5938 31.5185 35.5938 29.2806V19.5931C35.5938 17.3552 33.7796 15.541 31.5417 15.541H24.5777L23.1974 13.4704Z" fill="#151515" stroke="#151515"/>
    <path d="M23.4687 21.5312C23.4687 20.9962 23.035 20.5625 22.5 20.5625C21.965 20.5625 21.5312 20.9962 21.5312 21.5312V23.1458H19.9166C19.3816 23.1458 18.9479 23.5796 18.9479 24.1146C18.9479 24.6496 19.3816 25.0833 19.9166 25.0833H21.5312V26.6979C21.5312 27.2329 21.965 27.6667 22.5 27.6667C23.035 27.6667 23.4687 27.2329 23.4687 26.6979V25.0833H25.0833C25.6183 25.0833 26.052 24.6496 26.052 24.1146C26.052 23.5796 25.6183 23.1458 25.0833 23.1458H23.4687V21.5312Z" fill="#151515"/>
</svg>
