<svg width="24" height="24" viewBox="0 0 24 24" fill="none" xmlns="http://www.w3.org/2000/svg">
    <g clip-path="url(#clip0_700_3526)">
        <path d="M12 24C5.383 24 0 18.617 0 12C0 5.383 5.383 0 12 0C18.617 0 24 5.383 24 12C24 18.617 18.617 24 12 24ZM12 1C5.935 1 1 5.935 1 12C1 18.065 5.935 23 12 23C18.065 23 23 18.065 23 12C23 5.935 18.065 1 12 1Z" fill="#858585"/>
        <path d="M18 12C18 12.276 17.776 12.5 17.5 12.5H12.5V17.5C12.5 17.776 12.276 18 12 18C11.724 18 11.5 17.776 11.5 17.5V12.5H6.5C6.224 12.5 6 12.276 6 12C6 11.724 6.224 11.5 6.5 11.5H11.5V6.5C11.5 6.224 11.724 6 12 6C12.276 6 12.5 6.224 12.5 6.5V11.5H17.5C17.776 11.5 18 11.724 18 12Z" fill="#858585"/>
    </g>
    <defs>
        <clipPath id="clip0_700_3526">
            <rect width="24" height="24" fill="white"/>
        </clipPath>
    </defs>
</svg>
