<svg fill="#FA3200" width="24" height="24" viewBox="0 0 24 24"  xmlns="http://www.w3.org/2000/svg">
    <g clip-path="url(#clip0_700_3538)">
        <path d="M12 24C5.383 24 0 18.617 0 12C0 5.383 5.383 0 12 0C18.617 0 24 5.383 24 12C24 18.617 18.617 24 12 24ZM12 1C5.935 1 1 5.935 1 12C1 18.065 5.935 23 12 23C18.065 23 23 18.065 23 12C23 5.935 18.065 1 12 1Z"/>
        <path d="M17.8542 6.85325L12.7083 11.9992L17.8542 17.1453C18.0492 17.3403 18.0492 17.6573 17.8542 17.8523C17.7563 17.9503 17.6283 17.9983 17.5002 17.9983C17.3722 17.9983 17.2442 17.9493 17.1462 17.8523L12.0002 12.7062L6.85425 17.8523C6.75625 17.9503 6.62825 17.9983 6.50025 17.9983C6.37225 17.9983 6.24425 17.9493 6.14625 17.8523C5.95125 17.6573 5.95125 17.3403 6.14625 17.1453L11.2922 11.9992L6.14625 6.85325C5.95125 6.65825 5.95125 6.34125 6.14625 6.14625C6.34125 5.95125 6.65825 5.95125 6.85325 6.14625L11.9992 11.2923L17.1453 6.14625C17.3403 5.95125 17.6572 5.95125 17.8522 6.14625C18.0472 6.34125 18.0472 6.65825 17.8522 6.85325H17.8542Z"/>
    </g>
    <defs>
        <clipPath id="clip0_700_3538">
            <rect width="24" height="24" fill="white"/>
        </clipPath>
    </defs>
</svg>
