<svg width="24" height="24" viewBox="0 0 24 24" fill="none" xmlns="http://www.w3.org/2000/svg">
    <g clip-path="url(#clip0_700_3532)">
        <path d="M12 24C5.383 24 0 18.617 0 12C0 5.383 5.383 0 12 0C18.617 0 24 5.383 24 12C24 18.617 18.617 24 12 24ZM12 1C5.935 1 1 5.935 1 12C1 18.065 5.935 23 12 23C18.065 23 23 18.065 23 12C23 5.935 18.065 1 12 1Z" fill="#858585"/>
        <path d="M12.003 17.9999C11.9905 18.0009 12.0193 18.0019 12.003 17.9999V17.9999ZM11.5233 7.00103L11.5222 16.909C11.3242 16.835 11.1376 16.714 10.9799 16.5471L7.66925 13.2851C7.47887 13.0921 7.17408 13.0961 6.98948 13.2941C6.80391 13.4911 6.80872 13.8071 6.99717 14.001L10.3021 17.256C10.7569 17.7349 11.3982 17.9999 12.003 17.9999C12.6029 17.9929 13.2394 17.7529 13.6971 17.284L16.9971 14.001C17.0952 13.903 17.1442 13.7721 17.1442 13.6401C17.1442 13.5151 17.1 13.3901 17.0096 13.2941C16.8269 13.0951 16.5212 13.0881 16.3298 13.2791L13.025 16.5671C12.8673 16.729 12.6818 16.846 12.4847 16.916L12.4857 6.49994C12.4857 6.22397 12.2704 6 12.005 6C11.7396 6 11.5244 6.22513 11.5244 6.50109L11.5233 7.00103Z" fill="#858585"/>
    </g>
    <defs>
        <clipPath id="clip0_700_3532">
            <rect width="24" height="24" fill="white"/>
        </clipPath>
    </defs>
</svg>
