<svg width="24" height="24" viewBox="0 0 24 24" fill="none" xmlns="http://www.w3.org/2000/svg">
    <g clip-path="url(#clip0_700_3544)">
        <path d="M12 24C5.383 24 0 18.617 0 12C0 5.383 5.383 0 12 0C18.617 0 24 5.383 24 12C24 18.617 18.617 24 12 24ZM12 1C5.935 1 1 5.935 1 12C1 18.065 5.935 23 12 23C18.065 23 23 18.065 23 12C23 5.935 18.065 1 12 1Z" fill="#858585"/>
        <path d="M13.7322 6.70775L7.025 13.439C6.364 14.099 6 14.978 6 15.914V17.5C6 17.776 6.224 18 6.5 18H8.086C9.007 18 9.909 17.626 10.561 16.975L17.2682 10.2437C18.2432 9.26875 18.2432 7.68275 17.2682 6.70875C16.3252 5.76375 14.6762 5.76375 13.7332 6.70875L13.7322 6.70775ZM9.853 16.267C9.388 16.733 8.743 16.999 8.085 16.999H6.999V15.913C6.999 15.245 7.259 14.617 7.731 14.145L12.3352 9.51675L14.4562 11.6377L9.853 16.267ZM16.5602 9.53575L15.1642 10.9318L13.0432 8.81075L14.4392 7.41475C15.0052 6.84875 15.9942 6.84875 16.5602 7.41475C17.1452 7.99975 17.1452 8.95075 16.5602 9.53575Z" fill="#858585"/>
    </g>
    <defs>
        <clipPath id="clip0_700_3544">
            <rect width="24" height="24" fill="white"/>
        </clipPath>
    </defs>
</svg>
