<svg width="45" height="45" viewBox="0 0 45 45" fill="none" xmlns="http://www.w3.org/2000/svg">
    <circle cx="22.5" cy="22.5" r="22.5" fill="#FFC800"/>
    <g clip-path="url(#clip0_1395_7134)">
        <path d="M33.018 11.7751L32.9903 11.7499C32.4609 11.2663 31.7747 11 31.058 11C30.2546 11 29.4832 11.3401 28.9416 11.933L18.7001 23.1454C18.6067 23.2476 18.5359 23.3682 18.4922 23.4994L17.2879 27.1096C17.1487 27.527 17.2186 27.9886 17.4748 28.3443C17.7331 28.7028 18.1492 28.9169 18.588 28.9169C18.7778 28.9169 18.9634 28.8778 19.1394 28.8008L22.6261 27.2755C22.7529 27.22 22.8666 27.1386 22.9599 27.0364L33.2015 15.8241C34.2672 14.6574 34.185 12.8412 33.018 11.7751ZM19.5952 26.4427L20.3019 24.3243L20.3615 24.259L21.7008 25.4823L21.6412 25.5476L19.5952 26.4427ZM31.7412 14.4903L23.0347 24.0221L21.6953 22.7988L30.4019 13.2669C30.5722 13.0805 30.8052 12.9777 31.0581 12.9777C31.2799 12.9777 31.4924 13.0603 31.6568 13.2105L31.6845 13.2357C32.046 13.5659 32.0714 14.1287 31.7412 14.4903Z" fill="#151515"/>
        <path d="M31.0312 20.123C30.4851 20.123 30.0423 20.5658 30.0423 21.1119V29.5072C30.0423 30.8939 28.9141 32.0221 27.5275 32.0221H15.5424C14.1557 32.0221 13.0276 30.8939 13.0276 29.5072V17.6195C13.0276 16.2329 14.1557 15.1047 15.5424 15.1047H24.2172C24.7634 15.1047 25.2061 14.6619 25.2061 14.1158C25.2061 13.5697 24.7634 13.127 24.2172 13.127H15.5424C13.0651 13.127 11.0498 15.1423 11.0498 17.6195V29.5072C11.0498 31.9844 13.0652 33.9998 15.5424 33.9998H27.5274C30.0046 33.9998 32.02 31.9844 32.02 29.5072V21.1119C32.02 20.5658 31.5773 20.123 31.0312 20.123Z" fill="#151515"/>
    </g>
    <defs>
        <clipPath id="clip0_1395_7134">
            <rect width="23" height="23" fill="white" transform="translate(11 11)"/>
        </clipPath>
    </defs>
</svg>
