<svg width="24" height="24" viewBox="0 0 24 24" fill="none" xmlns="http://www.w3.org/2000/svg">
    <g clip-path="url(#clip0_700_3547)">
        <path d="M12 24C5.383 24 0 18.617 0 12C0 5.383 5.383 0 12 0C18.617 0 24 5.383 24 12C24 18.617 18.617 24 12 24ZM12 1C5.935 1 1 5.935 1 12C1 18.065 5.935 23 12 23C18.065 23 23 18.065 23 12C23 5.935 18.065 1 12 1Z" fill="#858585"/>
        <path d="M16.613 9.52803L13.785 6.64903C13.591 6.45203 13.275 6.44903 13.078 6.64303C12.881 6.83703 12.878 7.15303 13.072 7.35103L15.903 10.233C16.09 10.42 16.351 10.706 16.618 11.007C16.749 11.155 16.842 11.323 16.904 11.5H6.5C6.224 11.5 6 11.724 6 12C6 12.276 6.224 12.5 6.5 12.5H16.904C16.841 12.677 16.749 12.845 16.617 12.993C16.351 13.294 16.09 13.58 15.9 13.77L13.072 16.649C12.878 16.846 12.881 17.163 13.078 17.357C13.176 17.452 13.302 17.5 13.429 17.5C13.558 17.5 13.688 17.45 13.785 17.351L16.61 14.475C16.808 14.277 17.085 13.975 17.366 13.657C18.203 12.713 18.203 11.289 17.366 10.345C17.084 10.027 16.807 9.72403 16.613 9.53003V9.52803Z" fill="#858585"/>
    </g>
    <defs>
        <clipPath id="clip0_700_3547">
            <rect width="24" height="24" fill="white"/>
        </clipPath>
    </defs>
</svg>
