<svg width="22" height="25" viewBox="0 0 22 25" fill="none" xmlns="http://www.w3.org/2000/svg">
    <path d="M12.1695 7.63L10.1695 16.63C10.1195 16.86 9.90946 17.02 9.67946 17.02C9.63946 17.02 9.60946 17.02 9.56946 17.01C9.29946 16.95 9.12946 16.68 9.18946 16.41L11.1895 7.41C11.2495 7.14 11.5195 6.97 11.7895 7.03C12.0595 7.09 12.2295 7.36 12.1695 7.63ZM7.59946 9.94C7.79946 9.74 7.79946 9.43 7.59946 9.23C7.39946 9.03 7.08946 9.03 6.88946 9.23L5.10946 11.01C4.52946 11.59 4.52946 12.53 5.10946 13.11L6.83946 14.84C6.93946 14.94 7.06946 14.99 7.18946 14.99C7.30946 14.99 7.44946 14.94 7.53946 14.84C7.73946 14.64 7.73946 14.33 7.53946 14.13L5.80946 12.4C5.61946 12.21 5.61946 11.9 5.80946 11.71L7.58946 9.93L7.59946 9.94ZM14.4695 9.23C14.2695 9.03 13.9595 9.03 13.7595 9.23C13.5595 9.43 13.5595 9.74 13.7595 9.94L15.5395 11.72C15.7295 11.91 15.7295 12.22 15.5395 12.41L13.8095 14.14C13.6095 14.34 13.6095 14.65 13.8095 14.85C13.9095 14.95 14.0395 15 14.1595 15C14.2795 15 14.4195 14.95 14.5095 14.85L16.2395 13.12C16.8195 12.54 16.8195 11.6 16.2395 11.02L14.4595 9.24L14.4695 9.23ZM20.9195 18.29C20.4995 18.97 19.8395 19.45 19.0595 19.64C18.2795 19.83 17.4795 19.7 16.7895 19.28L16.3495 19.01C15.5495 19.66 14.6495 20.16 13.6795 20.51V21.02C13.6795 22.67 12.3295 24.02 10.6795 24.02C9.02946 24.02 7.67946 22.67 7.67946 21.02V20.51C6.70946 20.17 5.80946 19.67 5.00946 19.01L4.56946 19.28C3.88946 19.7 3.07946 19.83 2.29946 19.64C1.51946 19.45 0.859457 18.97 0.439457 18.29C-0.420543 16.88 0.0194569 15.03 1.42946 14.16L1.86946 13.89C1.73946 13.28 1.66946 12.65 1.66946 12.01C1.66946 11.37 1.73946 10.75 1.86946 10.13L1.42946 9.86C0.0194569 9 -0.420543 7.15 0.439457 5.73C0.859457 5.05 1.51946 4.57 2.29946 4.38C3.07946 4.19 3.87946 4.32 4.56946 4.74L5.00946 5.01C5.80946 4.36 6.70946 3.86 7.67946 3.51V3C7.67946 1.35 9.02946 0 10.6795 0C12.3295 0 13.6795 1.35 13.6795 3V3.51C14.6495 3.85 15.5495 4.35 16.3495 5.01L16.7895 4.74C17.4695 4.32 18.2795 4.2 19.0595 4.38C19.8395 4.57 20.4995 5.05 20.9195 5.73C21.7795 7.14 21.3395 8.99 19.9295 9.86L19.4895 10.13C19.6195 10.74 19.6895 11.37 19.6895 12.01C19.6895 12.65 19.6195 13.27 19.4895 13.89L19.9295 14.16C21.3395 15.02 21.7795 16.87 20.9195 18.29ZM19.4095 15.02L18.6595 14.56C18.4695 14.45 18.3795 14.22 18.4395 14.01C18.6095 13.36 18.6895 12.69 18.6895 12.02C18.6895 11.35 18.6095 10.68 18.4395 10.03C18.3895 9.82 18.4795 9.59 18.6595 9.48L19.4095 9.02C20.3495 8.44 20.6495 7.21 20.0695 6.27C19.4895 5.33 18.2595 5.03 17.3195 5.61L16.5695 6.07C16.3795 6.18 16.1395 6.16 15.9795 6.02C15.1195 5.26 14.1295 4.71 13.0395 4.37C12.8295 4.31 12.6895 4.11 12.6895 3.89V3.02C12.6895 1.92 11.7895 1.02 10.6895 1.02C9.58946 1.02 8.68946 1.92 8.68946 3.02V3.89C8.68946 4.11 8.54946 4.3 8.33946 4.37C7.24946 4.7 6.25946 5.26 5.39946 6.02C5.23946 6.17 4.99946 6.19 4.80946 6.07L4.05946 5.61C3.11946 5.03 1.88946 5.33 1.30946 6.27C0.729457 7.21 1.02946 8.44 1.96946 9.02L2.71946 9.48C2.90946 9.59 2.99946 9.82 2.93946 10.03C2.76946 10.68 2.68946 11.35 2.68946 12.02C2.68946 12.69 2.76946 13.36 2.93946 14.01C2.98946 14.22 2.89946 14.45 2.71946 14.56L1.96946 15.02C1.02946 15.6 0.729457 16.83 1.30946 17.77C1.88946 18.71 3.11946 19.01 4.05946 18.43L4.80946 17.97C4.88946 17.92 4.97946 17.9 5.06946 17.9C5.18946 17.9 5.30946 17.94 5.39946 18.02C6.25946 18.78 7.24946 19.33 8.33946 19.67C8.54946 19.73 8.68946 19.93 8.68946 20.15V21.02C8.68946 22.12 9.58946 23.02 10.6895 23.02C11.7895 23.02 12.6895 22.12 12.6895 21.02V20.15C12.6895 19.93 12.8295 19.74 13.0395 19.67C14.1295 19.34 15.1195 18.78 15.9795 18.02C16.1495 17.87 16.3895 17.85 16.5695 17.97L17.3195 18.43C18.2595 19.01 19.4895 18.71 20.0695 17.77C20.6495 16.83 20.3495 15.6 19.4095 15.02Z" fill="#858585"/>
</svg>
