<svg width="45" height="45" viewBox="0 0 45 45" fill="none" xmlns="http://www.w3.org/2000/svg">
    <circle cx="22.5" cy="22.5" r="22.5" fill="#FFC800"/>
    <g clip-path="url(#clip0_1395_7103)">
        <path d="M33.4796 12.3672L32.6309 11.519C31.6526 10.5407 30.3472 10.002 28.9546 10.002C27.562 10.002 26.2562 10.5407 25.2784 11.519L22.8911 13.9062C21.2301 15.5672 20.907 18.1512 22.0632 20.1701L21.1673 21.066C19.1492 19.9102 16.5648 20.2333 14.9038 21.8935L12.517 24.2807C11.5387 25.259 11 26.5648 11 27.957C11 29.3492 11.5387 30.655 12.517 31.6329L13.3657 32.4815C14.3435 33.4598 15.6493 33.9985 17.0415 33.9985C18.4337 33.9985 19.7395 33.4598 20.7178 32.4815L23.1046 30.0943C24.7656 28.4333 25.0888 25.8493 23.9325 23.8304L24.8268 22.9361C25.6299 23.3964 26.5218 23.6236 27.4104 23.6236C28.7558 23.6236 30.0917 23.1069 31.0919 22.1066L33.4792 19.7193C35.5069 17.6929 35.5069 14.3941 33.4796 12.3672ZM20.843 27.8322L18.4557 30.2195C18.0814 30.5935 17.5795 30.799 17.0411 30.799C16.5028 30.799 16.0009 30.593 15.6269 30.2195L14.7787 29.3712C14.4047 28.9969 14.1987 28.4949 14.1987 27.957C14.1987 27.4191 14.4047 26.9168 14.7787 26.5428L17.1655 24.1555C17.555 23.7664 18.1018 23.5672 18.6489 23.5836L17.9154 24.3172C17.5463 24.6863 17.3427 25.1774 17.3427 25.6998C17.3427 26.2221 17.5463 26.7132 17.9154 27.0824C18.2965 27.4635 18.7973 27.6543 19.298 27.6543C19.7988 27.6543 20.2995 27.4635 20.6806 27.0824L21.4197 26.3433C21.4413 26.8904 21.2426 27.4327 20.843 27.8322ZM31.2175 17.4577L28.8307 19.845C28.4411 20.2337 27.896 20.4333 27.3477 20.4165L28.0808 19.6834C28.4504 19.3143 28.6535 18.8231 28.6535 18.3008C28.6535 17.7785 28.4504 17.2873 28.0808 16.9182C27.3185 16.1559 26.0779 16.1559 25.3156 16.9182L24.5809 17.6533C24.5793 17.6293 24.5736 17.6065 24.5736 17.5825C24.5736 17.0446 24.7796 16.5423 25.1536 16.1683L27.5404 13.781C27.9148 13.4071 28.4167 13.2015 28.9546 13.2015C29.4926 13.2015 29.9949 13.4075 30.3688 13.781L31.2175 14.6297C31.997 15.4092 31.997 16.6778 31.2175 17.4577Z" fill="#151515"/>
        <path d="M30.08 28.5162L27.8803 26.3165C27.7243 26.1601 27.4708 26.1601 27.3148 26.3165C27.1584 26.4729 27.1584 26.7256 27.3148 26.882L29.5145 29.0817C29.592 29.1597 29.6948 29.1989 29.7972 29.1989C29.8996 29.1989 30.002 29.1597 30.08 29.0817C30.2364 28.9253 30.2364 28.6726 30.08 28.5162Z" fill="#151515"/>
        <path d="M29.7973 24.4004H28.5974C28.3767 24.4004 28.1975 24.5792 28.1975 24.8003C28.1975 25.0215 28.3767 25.2003 28.5974 25.2003H29.7973C30.0181 25.2003 30.1972 25.0215 30.1972 24.8003C30.1972 24.5792 30.0181 24.4004 29.7973 24.4004Z" fill="#151515"/>
        <path d="M25.7979 27.1992C25.5771 27.1992 25.3979 27.378 25.3979 27.5992V28.799C25.3979 29.0202 25.5771 29.1989 25.7979 29.1989C26.0187 29.1989 26.1978 29.0202 26.1978 28.799V27.5992C26.1978 27.378 26.0187 27.1992 25.7979 27.1992Z" fill="#151515"/>
        <path d="M18.6817 17.1177L16.482 14.9181C16.326 14.7617 16.0725 14.7617 15.9165 14.9181C15.7601 15.0744 15.7601 15.3272 15.9165 15.4836L18.1162 17.6833C18.1942 17.7613 18.2965 17.8005 18.3989 17.8005C18.5013 17.8005 18.6037 17.7613 18.6817 17.6833C18.8381 17.5269 18.8381 17.2741 18.6817 17.1177Z" fill="#151515"/>
        <path d="M17.3991 18.8008H16.1992C15.9785 18.8008 15.7993 18.9796 15.7993 19.2007C15.7993 19.4219 15.9785 19.6006 16.1992 19.6006H17.3991C17.6199 19.6006 17.799 19.4219 17.799 19.2007C17.799 18.9796 17.6199 18.8008 17.3991 18.8008Z" fill="#151515"/>
        <path d="M20.1988 14.8008C19.978 14.8008 19.7988 14.9796 19.7988 15.2007V16.4006C19.7988 16.6217 19.978 16.8005 20.1988 16.8005C20.4195 16.8005 20.5987 16.6217 20.5987 16.4006V15.2007C20.5987 14.9796 20.4195 14.8008 20.1988 14.8008Z" fill="#151515"/>
    </g>
    <defs>
        <clipPath id="clip0_1395_7103">
            <rect width="24" height="24" fill="white" transform="translate(11 10)"/>
        </clipPath>
    </defs>
</svg>
