<svg width="24" height="24" viewBox="0 0 24 24" fill="none" xmlns="http://www.w3.org/2000/svg">
    <g clip-path="url(#clip0_700_3529)">
        <path d="M12 24C5.383 24 0 18.617 0 12C0 5.383 5.383 0 12 0C18.617 0 24 5.383 24 12C24 18.617 18.617 24 12 24ZM12 1C5.935 1 1 5.935 1 12C1 18.065 5.935 23 12 23C18.065 23 23 18.065 23 12C23 5.935 18.065 1 12 1Z" fill="#858585"/>
        <path d="M11.9943 6.00115C11.9779 5.99915 12.0068 6.00015 11.9943 6.00115V6.00115ZM12.4739 17L12.475 7.09201C12.6731 7.16601 12.8596 7.28699 13.0173 7.45397L16.328 10.7159C16.5183 10.9089 16.8231 10.9049 17.0077 10.7069C17.1933 10.5099 17.1885 10.194 17.0001 10L13.6951 6.74506C13.2403 6.26612 12.599 6.00115 11.9943 6.00115C11.3943 6.00815 10.7578 6.24812 10.3001 6.71706L7.00013 10C6.90206 10.098 6.85303 10.229 6.85303 10.361C6.85303 10.4859 6.89726 10.6109 6.98764 10.7069C7.17032 10.9059 7.47607 10.9129 7.66741 10.7219L10.9722 7.43397C11.1299 7.27199 11.3155 7.15501 11.5126 7.08502L11.5115 17.5011C11.5115 17.7771 11.7269 18.001 11.9922 18.001C12.2576 18.001 12.4729 17.7759 12.4729 17.4999L12.4739 17Z" fill="#858585"/>
    </g>
    <defs>
        <clipPath id="clip0_700_3529">
            <rect width="24" height="24" fill="white"/>
        </clipPath>
    </defs>
</svg>
