<svg width="45" height="45" viewBox="0 0 45 45" fill="none" xmlns="http://www.w3.org/2000/svg">
    <circle cx="22.5" cy="22.5" r="22.5" fill="#FFC800"/>
    <g clip-path="url(#clip0_1395_7090)">
        <path d="M23 34.9612C23.828 34.9612 24.5 34.2892 24.5 33.4612V25.9079L25.6287 27.0367C25.9212 27.3299 26.3052 27.4762 26.6892 27.4762C27.0732 27.4762 27.4572 27.3299 27.7497 27.0367C28.3355 26.4509 28.3355 25.5014 27.7497 24.9157L24.0605 21.2264C23.4755 20.6407 22.5245 20.6407 21.9395 21.2264L18.2502 24.9157C17.6645 25.5014 17.6645 26.4509 18.2502 27.0367C18.8352 27.6224 19.7862 27.6224 20.3712 27.0367L21.5 25.9079V33.4612C21.5 34.2892 22.172 34.9612 23 34.9612Z" fill="#151515"/>
        <path d="M30.4475 17.6461C30.005 13.9291 26.834 11.0371 23 11.0371C19.166 11.0371 15.995 13.9291 15.5525 17.6461C12.8248 18.8086 11 21.5019 11 24.5371C11 28.3291 13.8388 31.5286 17.6023 31.9794C18.4325 32.0799 19.172 31.4911 19.2703 30.6684C19.3685 29.8456 18.782 29.0994 17.9593 29.0004C15.7025 28.7304 14 26.8119 14 24.5371C14 22.4881 15.3875 20.6986 17.375 20.1864C18.0373 20.0154 18.5 19.4184 18.5 18.7336V18.5371C18.5 16.0554 20.5182 14.0371 23 14.0371C25.4818 14.0371 27.5 16.0554 27.5 18.5371V18.7336C27.5 19.4176 27.9627 20.0154 28.625 20.1864C30.6117 20.6986 32 22.4881 32 24.5371C32 26.8119 30.2975 28.7304 28.0408 29.0004C27.218 29.0986 26.6315 29.8456 26.7297 30.6684C26.8212 31.4304 27.4685 31.9899 28.217 31.9899C28.2762 31.9899 28.337 31.9869 28.397 31.9794C32.1612 31.5294 35 28.3291 35 24.5371C35 21.5019 33.1753 18.8086 30.4475 17.6461Z" fill="#151515"/>
    </g>
    <defs>
        <clipPath id="clip0_1395_7090">
            <rect width="24" height="24" fill="white" transform="translate(11 11)"/>
        </clipPath>
    </defs>
</svg>
