<svg width="24" height="24" viewBox="0 0 24 24" fill="none" xmlns="http://www.w3.org/2000/svg">
    <g clip-path="url(#clip0_700_3541)">
        <path d="M12 24C5.383 24 0 18.617 0 12C0 5.383 5.383 0 12 0C18.617 0 24 5.383 24 12C24 18.617 18.617 24 12 24ZM12 1C5.935 1 1 5.935 1 12C1 18.065 5.935 23 12 23C18.065 23 23 18.065 23 12C23 5.935 18.065 1 12 1Z" fill="#858585"/>
        <path d="M14 11V9C14 7.897 13.103 7 12 7H8C6.897 7 6 7.897 6 9V11C6 12.103 6.897 13 8 13H12C13.103 13 14 12.103 14 11ZM7 11V9C7 8.448 7.449 8 8 8H12C12.551 8 13 8.448 13 9V11C13 11.552 12.551 12 12 12H8C7.449 12 7 11.552 7 11ZM18 13V15C18 16.103 17.103 17 16 17H12C11.142 17 10.38 16.454 10.105 15.641C10.017 15.379 10.157 15.096 10.418 15.007C10.679 14.921 10.963 15.059 11.052 15.32C11.19 15.726 11.571 16 12 16H16C16.551 16 17 15.552 17 15V13C17 12.589 16.743 12.214 16.359 12.066C16.101 11.967 15.972 11.678 16.071 11.42C16.17 11.162 16.459 11.034 16.717 11.132C17.484 11.426 17.999 12.177 17.999 12.999L18 13Z" fill="#858585"/>
    </g>
    <defs>
        <clipPath id="clip0_700_3541">
            <rect width="24" height="24" fill="white"/>
        </clipPath>
    </defs>
</svg>
